{
	"asset":{
		"generator":"Khronos glTF Blender I/O v4.2.70",
		"version":"2.0"
	},
	"extensionsUsed":[
		"KHR_materials_specular"
	],
	"scene":0,
	"scenes":[
		{
			"name":"Scene",
			"nodes":[
				28
			]
		}
	],
	"nodes":[
		{
			"name":"Spine1.003",
			"rotation":[
				-0.2583760619163513,
				7.355176716164827e-15,
				-6.160165355595382e-08,
				0.9660444259643555
			],
			"scale":[
				1,
				0.9999999403953552,
				1
			],
			"translation":[
				9.864664640701903e-11,
				0.07837150245904922,
				2.1856971343936493e-08
			]
		},
		{
			"children":[
				0
			],
			"name":"Neck",
			"rotation":[
				0.3982067108154297,
				9.682574227533151e-15,
				9.493987107589419e-08,
				0.9172956943511963
			],
			"scale":[
				1,
				0.9999998807907104,
				1
			],
			"translation":[
				1.6498002963771796e-10,
				0.212079718708992,
				-2.564047996145291e-08
			]
		},
		{
			"name":"LowerArm.L",
			"rotation":[
				0.09855227172374725,
				0.0020352464634925127,
				-0.5386683940887451,
				0.8367315530776978
			],
			"scale":[
				0.9999999403953552,
				1.0000001192092896,
				1
			],
			"translation":[
				-1.285807229578495e-07,
				0.21892324090003967,
				0
			]
		},
		{
			"children":[
				2
			],
			"name":"UpperArm.L",
			"rotation":[
				0.030778247863054276,
				0.03036884218454361,
				-0.24554221332073212,
				0.9684211015701294
			],
			"scale":[
				1.0000001192092896,
				1.0000001192092896,
				0.9999997019767761
			],
			"translation":[
				1.872722350526601e-07,
				0.09641972929239273,
				0
			]
		},
		{
			"children":[
				3
			],
			"name":"Clav.L",
			"rotation":[
				0.061709925532341,
				0.12741719186306,
				-0.5003436803817749,
				0.8541738390922546
			],
			"scale":[
				1,
				0.9999999403953552,
				1
			],
			"translation":[
				0.024530982598662376,
				0.1294323354959488,
				0.0017020548693835735
			]
		},
		{
			"name":"Hand.L",
			"rotation":[
				-0.033950697630643845,
				0.00493259122595191,
				-0.7062911987304688,
				0.7070896625518799
			],
			"scale":[
				0.9999999403953552,
				0.9999999403953552,
				0.9999999403953552
			],
			"translation":[
				-1.6520637302619434e-08,
				9.086875252251048e-08,
				6.306422051238769e-11
			]
		},
		{
			"children":[
				5
			],
			"name":"HandIK.L",
			"rotation":[
				0.15908417105674744,
				-0.038838211447000504,
				-0.0062632174231112,
				0.9864808917045593
			],
			"scale":[
				1,
				0.9999999403953552,
				1
			],
			"translation":[
				0.40064236521720886,
				0.014619769528508186,
				-0.05518851801753044
			]
		},
		{
			"name":"LowerArm.R",
			"rotation":[
				0.6870536208152771,
				-0.010655060410499573,
				-0.30185118317604065,
				0.6608552932739258
			],
			"scale":[
				0.9999999403953552,
				1.0000003576278687,
				1
			],
			"translation":[
				7.82310962677002e-08,
				0.21892313659191132,
				0
			]
		},
		{
			"children":[
				7
			],
			"name":"UpperArm.R",
			"rotation":[
				-0.033730000257492065,
				-0.25675898790359497,
				0.060695018619298935,
				0.9639778137207031
			],
			"scale":[
				0.9999997615814209,
				0.9999997615814209,
				0.9999996423721313
			],
			"translation":[
				-1.0891199053730816e-07,
				0.09641966968774796,
				-3.725290298461914e-09
			]
		},
		{
			"children":[
				8
			],
			"name":"Clav.R",
			"rotation":[
				0.061709798872470856,
				-0.12741738557815552,
				0.5003437399864197,
				0.8541737794876099
			],
			"translation":[
				-0.028193043544888496,
				0.1294323354959488,
				0.0017020422965288162
			]
		},
		{
			"name":"Hand.R",
			"rotation":[
				-0.03395071253180504,
				-0.004932604730129242,
				0.7062913179397583,
				0.7070895433425903
			],
			"scale":[
				0.9999999403953552,
				0.9999998807907104,
				1
			],
			"translation":[
				3.725290298461914e-08,
				-6.146728992462158e-08,
				-7.450580596923828e-09
			]
		},
		{
			"children":[
				10
			],
			"name":"HandIK.R",
			"rotation":[
				0.26889243721961975,
				0.3324603736400604,
				0.06996230036020279,
				0.9012614488601685
			],
			"translation":[
				-0.3393404483795166,
				0.20577466487884521,
				0.13927757740020752
			]
		},
		{
			"children":[
				1,
				4,
				6,
				9,
				11
			],
			"name":"Chest",
			"rotation":[
				-0.1948205530643463,
				-6.791470360536459e-15,
				-4.644883233595465e-08,
				0.9808388948440552
			],
			"scale":[
				1,
				0.9999999403953552,
				0.9999999403953552
			],
			"translation":[
				1.6192380769552983e-11,
				0.1770675629377365,
				-1.4260934655396795e-09
			]
		},
		{
			"children":[
				12
			],
			"name":"Spine",
			"rotation":[
				-0.11912458389997482,
				3.354555932383633e-16,
				-2.8401512253140027e-08,
				0.992879331111908
			],
			"scale":[
				1,
				0.9999998807907104,
				0.9999998807907104
			],
			"translation":[
				-2.6995738977575456e-11,
				0.1290479451417923,
				9.749777873935273e-09
			]
		},
		{
			"name":"LowerLeg.L",
			"rotation":[
				-0.5114166736602783,
				-0.01637331023812294,
				-0.47676917910575867,
				0.7147557735443115
			],
			"scale":[
				1.0000003576278687,
				1.0000015497207642,
				0.9999982714653015
			],
			"translation":[
				3.91155481338501e-08,
				0.26169881224632263,
				7.450580596923828e-09
			]
		},
		{
			"children":[
				14
			],
			"name":"UpperLeg.L",
			"rotation":[
				0.14824120700359344,
				-0.5662096738815308,
				-0.7526938915252686,
				0.3014686703681946
			],
			"scale":[
				0.9999997615814209,
				1.0000004768371582,
				0.9999972581863403
			],
			"translation":[
				0.05450745299458504,
				0.04620923846960068,
				-0.0016666370211169124
			]
		},
		{
			"name":"LowerLeg.R",
			"rotation":[
				-0.07965150475502014,
				0.02276487648487091,
				0.0742553323507309,
				0.9937925338745117
			],
			"scale":[
				0.9999997615814209,
				0.9999998807907104,
				0.999999463558197
			],
			"translation":[
				-7.566995918750763e-09,
				0.26169878244400024,
				9.313225746154785e-10
			]
		},
		{
			"children":[
				16
			],
			"name":"UpperLeg.R",
			"rotation":[
				-0.06341307610273361,
				0.19030815362930298,
				0.9777830839157104,
				0.06084296479821205
			],
			"scale":[
				0.9999995231628418,
				0.9999994039535522,
				0.9999977350234985
			],
			"translation":[
				-0.058169517666101456,
				0.04620923846960068,
				-0.0016666639130562544
			]
		},
		{
			"children":[
				13,
				15,
				17
			],
			"name":"Hip",
			"rotation":[
				0.1549677550792694,
				1.177691757447974e-07,
				1.847359598627918e-08,
				0.9879195690155029
			],
			"translation":[
				0.0018310305895283818,
				0.5915428996086121,
				-0.01324527245014906
			]
		},
		{
			"name":"Foot.L",
			"rotation":[
				0.9743140339851379,
				-0.002822183072566986,
				0.002843535505235195,
				0.22515815496444702
			],
			"scale":[
				0.9999998807907104,
				1,
				1.0000004768371582
			],
			"translation":[
				-1.6298145055770874e-09,
				-2.9802322387695312e-08,
				7.101334631443024e-09
			]
		},
		{
			"children":[
				19
			],
			"name":"FootIK.L",
			"rotation":[
				-0.005463073495775461,
				-0.7070856690406799,
				0.7070856094360352,
				0.005463073495775461
			],
			"scale":[
				1,
				0.9999999403953552,
				1
			],
			"translation":[
				0.09216979891061783,
				0.24746528267860413,
				0.0949651375412941
			]
		},
		{
			"name":"Foot.R",
			"rotation":[
				0.9743140339851379,
				0.002822183072566986,
				-0.002843535505235195,
				0.22515815496444702
			],
			"scale":[
				0.9999998807907104,
				1,
				1.0000004768371582
			],
			"translation":[
				-1.862645149230957e-09,
				-1.4435499906539917e-08,
				2.3283064365386963e-10
			]
		},
		{
			"children":[
				21
			],
			"name":"FootIK.R",
			"rotation":[
				-0.005463073495775461,
				0.7070856690406799,
				-0.7070856094360352,
				0.005463073495775461
			],
			"scale":[
				1,
				0.9999999403953552,
				1
			],
			"translation":[
				-0.08637958019971848,
				0.07936959713697433,
				-0.005518296733498573
			]
		},
		{
			"name":"LegTarget.L",
			"rotation":[
				0.0632639154791832,
				-0.7042710185050964,
				-0.7042710185050964,
				0.0632639154791832
			],
			"scale":[
				1,
				0.9999999403953552,
				1
			],
			"translation":[
				-0.04600372910499573,
				0.4385022521018982,
				0.3048476278781891
			]
		},
		{
			"name":"LegTarget.R",
			"rotation":[
				0.0632639154791832,
				0.7042710185050964,
				0.7042710185050964,
				0.0632639154791832
			],
			"scale":[
				1,
				0.9999999403953552,
				1
			],
			"translation":[
				-0.09042675793170929,
				0.377389132976532,
				0.18674257397651672
			]
		},
		{
			"children":[
				18,
				20,
				22,
				23,
				24
			],
			"name":"Main"
		},
		{
			"name":"neutral_bone",
			"rotation":[
				-0.7071067690849304,
				0,
				0,
				0.7071067690849304
			]
		},
		{
			"mesh":0,
			"name":"Ch46",
			"skin":0
		},
		{
			"children":[
				27,
				25,
				26
			],
			"name":"Armature"
		}
	],
	"materials":[
		{
			"doubleSided":true,
			"extensions":{
				"KHR_materials_specular":{
					"specularTexture":{
						"index":0
					}
				}
			},
			"name":"Ch46_body",
			"normalTexture":{
				"index":1
			},
			"pbrMetallicRoughness":{
				"baseColorTexture":{
					"index":2
				},
				"metallicFactor":0.5,
				"metallicRoughnessTexture":{
					"index":3
				}
			}
		}
	],
	"meshes":[
		{
			"name":"Mesh",
			"primitives":[
				{
					"attributes":{
						"POSITION":0,
						"NORMAL":1,
						"TEXCOORD_0":2,
						"JOINTS_0":3,
						"WEIGHTS_0":4
					},
					"indices":5,
					"material":0
				}
			]
		}
	],
	"textures":[
		{
			"sampler":0,
			"source":0
		},
		{
			"sampler":0,
			"source":1
		},
		{
			"sampler":0,
			"source":2
		},
		{
			"sampler":0,
			"source":3
		}
	],
	"images":[
		{
			"mimeType":"image/png",
			"name":"Ch46_1001_Specular",
			"uri":"Ch46_1001_Specular.png"
		},
		{
			"mimeType":"image/png",
			"name":"Ch46_1001_Normal",
			"uri":"Ch46_1001_Normal.png"
		},
		{
			"mimeType":"image/png",
			"name":"Ch46_1001_Diffuse",
			"uri":"Ch46_1001_Diffuse.png"
		},
		{
			"mimeType":"image/png",
			"name":"Ch46_1001_Glossiness",
			"uri":"Ch46_1001_Glossiness.png"
		}
	],
	"skins":[
		{
			"inverseBindMatrices":6,
			"joints":[
				25,
				18,
				13,
				12,
				1,
				0,
				4,
				3,
				2,
				6,
				5,
				9,
				8,
				7,
				11,
				10,
				15,
				14,
				17,
				16,
				20,
				19,
				22,
				21,
				23,
				24,
				26
			],
			"name":"Armature"
		}
	],
	"accessors":[
		{
			"bufferView":0,
			"componentType":5126,
			"count":13836,
			"max":[
				0.6781827807426453,
				1.4735088348388672,
				0.17388951778411865
			],
			"min":[
				-0.6781632304191589,
				-0.00025237680529244244,
				-0.21724286675453186
			],
			"type":"VEC3"
		},
		{
			"bufferView":1,
			"componentType":5126,
			"count":13836,
			"type":"VEC3"
		},
		{
			"bufferView":2,
			"componentType":5126,
			"count":13836,
			"type":"VEC2"
		},
		{
			"bufferView":3,
			"componentType":5121,
			"count":13836,
			"type":"VEC4"
		},
		{
			"bufferView":4,
			"componentType":5126,
			"count":13836,
			"type":"VEC4"
		},
		{
			"bufferView":5,
			"componentType":5123,
			"count":74604,
			"type":"SCALAR"
		},
		{
			"bufferView":6,
			"componentType":5126,
			"count":27,
			"type":"MAT4"
		}
	],
	"bufferViews":[
		{
			"buffer":0,
			"byteLength":166032,
			"byteOffset":0,
			"target":34962
		},
		{
			"buffer":0,
			"byteLength":166032,
			"byteOffset":166032,
			"target":34962
		},
		{
			"buffer":0,
			"byteLength":110688,
			"byteOffset":332064,
			"target":34962
		},
		{
			"buffer":0,
			"byteLength":55344,
			"byteOffset":442752,
			"target":34962
		},
		{
			"buffer":0,
			"byteLength":221376,
			"byteOffset":498096,
			"target":34962
		},
		{
			"buffer":0,
			"byteLength":149208,
			"byteOffset":719472,
			"target":34963
		},
		{
			"buffer":0,
			"byteLength":1728,
			"byteOffset":868680
		}
	],
	"samplers":[
		{
			"magFilter":9729,
			"minFilter":9987
		}
	],
	"buffers":[
		{
			"byteLength":870408,
			"uri":"untitled.bin"
		}
	]
}
