{
	"asset":{
		"generator":"Khronos glTF Blender I/O v4.2.57",
		"version":"2.0"
	},
	"scene":0,
	"scenes":[
		{
			"name":"Scene",
			"nodes":[
				0
			]
		}
	],
	"nodes":[
		{
			"mesh":0,
			"name":"Helmet_Material_0"
		}
	],
	"materials":[
		{
			"name":"Material.002",
			"normalTexture":{
				"index":0
			},
			"occlusionTexture":{
				"index":1
			},
			"pbrMetallicRoughness":{
				"baseColorTexture":{
					"index":2
				},
				"metallicRoughnessTexture":{
					"index":1
				}
			}
		}
	],
	"meshes":[
		{
			"name":"Helmet_Material_0",
			"primitives":[
				{
					"attributes":{
						"POSITION":0,
						"NORMAL":1,
						"TEXCOORD_0":2,
						"TEXCOORD_1":3,
						"TEXCOORD_2":4,
						"TEXCOORD_3":5
					},
					"indices":6,
					"material":0
				}
			]
		}
	],
	"textures":[
		{
			"sampler":0,
			"source":0
		},
		{
			"sampler":0,
			"source":1
		},
		{
			"sampler":0,
			"source":2
		}
	],
	"images":[
		{
			"mimeType":"image/png",
			"name":"Material_normal",
			"uri":"Textures/Material_normal.png"
		},
		{
			"mimeType":"image/png",
			"name":"Material_metallicRoughness",
			"uri":"Textures/Material_metallicRoughness.png"
		},
		{
			"mimeType":"image/png",
			"name":"Material_baseColor",
			"uri":"Textures/Material_baseColor.png"
		}
	],
	"accessors":[
		{
			"bufferView":0,
			"componentType":5126,
			"count":23330,
			"max":[
				2.5919599533081055,
				1.6772947311401367,
				0.4366687536239624
			],
			"min":[
				-2.5919599533081055,
				-3.0713613033294678,
				-4.692028999328613
			],
			"type":"VEC3"
		},
		{
			"bufferView":1,
			"componentType":5126,
			"count":23330,
			"type":"VEC3"
		},
		{
			"bufferView":2,
			"componentType":5126,
			"count":23330,
			"type":"VEC2"
		},
		{
			"bufferView":3,
			"componentType":5126,
			"count":23330,
			"type":"VEC2"
		},
		{
			"bufferView":4,
			"componentType":5126,
			"count":23330,
			"type":"VEC2"
		},
		{
			"bufferView":5,
			"componentType":5126,
			"count":23330,
			"type":"VEC2"
		},
		{
			"bufferView":6,
			"componentType":5123,
			"count":34572,
			"type":"SCALAR"
		}
	],
	"bufferViews":[
		{
			"buffer":0,
			"byteLength":279960,
			"byteOffset":0,
			"target":34962
		},
		{
			"buffer":0,
			"byteLength":279960,
			"byteOffset":279960,
			"target":34962
		},
		{
			"buffer":0,
			"byteLength":186640,
			"byteOffset":559920,
			"target":34962
		},
		{
			"buffer":0,
			"byteLength":186640,
			"byteOffset":746560,
			"target":34962
		},
		{
			"buffer":0,
			"byteLength":186640,
			"byteOffset":933200,
			"target":34962
		},
		{
			"buffer":0,
			"byteLength":186640,
			"byteOffset":1119840,
			"target":34962
		},
		{
			"buffer":0,
			"byteLength":69144,
			"byteOffset":1306480,
			"target":34963
		}
	],
	"samplers":[
		{
			"magFilter":9729,
			"minFilter":9987
		}
	],
	"buffers":[
		{
			"byteLength":1375624,
			"uri":"untitled.bin"
		}
	]
}
